<svg id="Layer_1" data-name="Layer 1" xmlns="http://www.w3.org/2000/svg" viewBox="0 0 55.25 16.85"><defs><style>.cls-1{fill:#212a2f;}.cls-2{fill:#f2db68;}</style></defs><title>Capsol Sized</title><path class="cls-1" d="M16.42,37.69a0.25,0.25,0,0,1,.29.29,0.26,0.26,0,0,1-.29.31H12.83A3.58,3.58,0,0,1,11.36,38a4,4,0,0,1-2-2A3.58,3.58,0,0,1,9,34.46V32.75a3.58,3.58,0,0,1,.31-1.47,4,4,0,0,1,2-2,3.59,3.59,0,0,1,1.47-.31h3.59a0.26,0.26,0,0,1,.29.31,0.25,0.25,0,0,1-.29.29H12.83a3.05,3.05,0,0,0-1.23.26,3.39,3.39,0,0,0-1,.69,3.27,3.27,0,0,0-.71,1,3.07,3.07,0,0,0-.27,1.26v1.71a3.11,3.11,0,0,0,.25,1.25,3.29,3.29,0,0,0,1.73,1.73,3.1,3.1,0,0,0,1.25.25h3.59Z" transform="translate(-9 -25.91)"/><path class="cls-1" d="M23.73,28.92a3.69,3.69,0,0,1,1.47.3,4,4,0,0,1,1.23.82,3.76,3.76,0,0,1,1.13,2.71v1.71A3.64,3.64,0,0,1,27.25,36a3.9,3.9,0,0,1-.84,1.22,4,4,0,0,1-1.23.82,3.69,3.69,0,0,1-1.47.3H21.25a2.92,2.92,0,0,1-1.16-.23,3,3,0,0,1-1.59-1.59,3,3,0,0,1,0-2.33,2.88,2.88,0,0,1,.64-0.94,3.12,3.12,0,0,1,1-.63,2.93,2.93,0,0,1,1.17-.23H27L26.87,32a3.18,3.18,0,0,0-.43-1,3.15,3.15,0,0,0-.72-0.78,3.57,3.57,0,0,0-.93-0.51,3,3,0,0,0-1.06-.19H19.81a0.25,0.25,0,0,1-.29-0.29,0.26,0.26,0,0,1,.29-0.31h3.92Zm0,8.77A3.09,3.09,0,0,0,25,37.43a3.27,3.27,0,0,0,1-.71,3.39,3.39,0,0,0,.69-1A3,3,0,0,0,27,34.46V32.93H21.25a2.35,2.35,0,0,0-.94.19A2.41,2.41,0,0,0,19,34.38a2.27,2.27,0,0,0-.19.92,2.32,2.32,0,0,0,.19.94,2.41,2.41,0,0,0,1.27,1.26,2.34,2.34,0,0,0,.94.19h2.46Z" transform="translate(-9 -25.91)"/><path class="cls-1" d="M29.62,32.69a3.57,3.57,0,0,1,.3-1.44,3.91,3.91,0,0,1,2-2,3.54,3.54,0,0,1,1.45-.3H35a3.56,3.56,0,0,1,1.44.3,3.89,3.89,0,0,1,2,2,3.57,3.57,0,0,1,.3,1.44v1.84a3.54,3.54,0,0,1-.3,1.45,3.92,3.92,0,0,1-.82,1.2,3.88,3.88,0,0,1-1.21.82,3.56,3.56,0,0,1-1.44.3H33.38a3.62,3.62,0,0,1-2.66-1.11l-0.51-.51v5.8a0.26,0.26,0,0,1-.31.29,0.25,0.25,0,0,1-.29-0.29V32.69Zm0.6,1.9a2.8,2.8,0,0,0,.27,1.21,3.36,3.36,0,0,0,.7,1,3.24,3.24,0,0,0,1,.66,3,3,0,0,0,1.2.24H35a3,3,0,0,0,1.22-.25A3.28,3.28,0,0,0,38,35.74a3,3,0,0,0,.25-1.22V32.69A3,3,0,0,0,38,31.47a3.28,3.28,0,0,0-1.69-1.69A3,3,0,0,0,35,29.52H33.38a3,3,0,0,0-1.22.26,3.27,3.27,0,0,0-1.69,1.69,3,3,0,0,0-.25,1.22v1.9Z" transform="translate(-9 -25.91)"/><path class="cls-1" d="M49.5,31.2a0.26,0.26,0,0,1-.31.29,0.26,0.26,0,0,1-.29-0.29V31a1.2,1.2,0,0,0-.11-0.48,1.66,1.66,0,0,0-.27-0.43L48.44,30a1.62,1.62,0,0,0-1.18-.49H43.62A1.67,1.67,0,0,0,42,31.19a1.44,1.44,0,0,0,.58,1.25,4,4,0,0,0,1.44.61,16.11,16.11,0,0,0,1.88.31,10.86,10.86,0,0,1,1.88.37,3.74,3.74,0,0,1,1.44.77A1.91,1.91,0,0,1,49.75,36a2.19,2.19,0,0,1-.18.88,2.3,2.3,0,0,1-.49.72,2.46,2.46,0,0,1-.72.5,2.11,2.11,0,0,1-.9.19H43.52a2.23,2.23,0,0,1-.84-0.16A2.61,2.61,0,0,1,42,37.7a2,2,0,0,1-.51-0.65,1.71,1.71,0,0,1-.19-0.77,1.81,1.81,0,0,1,0-.38,0.23,0.23,0,0,1,.26-0.2,0.27,0.27,0,0,1,.3.31v0.24a1.12,1.12,0,0,0,.14.56,1.69,1.69,0,0,0,.38.45,1.74,1.74,0,0,0,.53.31,1.7,1.7,0,0,0,.59.11h4A1.67,1.67,0,0,0,49.15,36a1.51,1.51,0,0,0-.2-0.81,1.81,1.81,0,0,0-.5-0.53,2.53,2.53,0,0,0-.68-0.33,6.41,6.41,0,0,0-.71-0.19q-0.73-.13-1.71-0.23a10,10,0,0,1-1.87-.37,4.09,4.09,0,0,1-1.51-.8,1.93,1.93,0,0,1-.62-1.55,2.13,2.13,0,0,1,.19-0.9,2.47,2.47,0,0,1,.5-0.72,2.3,2.3,0,0,1,.72-0.49,2.18,2.18,0,0,1,.88-0.18h3.62a2.22,2.22,0,0,1,1.6.64l0.07,0.07a2.61,2.61,0,0,1,.42.63,1.64,1.64,0,0,1,.18.72,0.53,0.53,0,0,1,0,.1A0.6,0.6,0,0,0,49.5,31.2Z" transform="translate(-9 -25.91)"/><path class="cls-2" d="M52,38.29V36.21a3.58,3.58,0,0,1,.31-1.47,4,4,0,0,1,2-2,3.59,3.59,0,0,1,1.47-.31h1.71a3.59,3.59,0,0,1,1.47.31,4,4,0,0,1,2,2,3.59,3.59,0,0,1,.31,1.47v2.08H52Z" transform="translate(-9 -25.91)"/><path class="cls-1" d="M63.65,26.2a0.25,0.25,0,0,1,.29-0.29,0.27,0.27,0,0,1,.31.29V38a0.26,0.26,0,0,1-.31.29A0.25,0.25,0,0,1,63.65,38V26.2Z" transform="translate(-9 -25.91)"/></svg>