<?xml version="1.0" encoding="utf-8"?>
<!-- Generator: Adobe Illustrator 19.2.0, SVG Export Plug-In . SVG Version: 6.00 Build 0)  -->
<svg version="1.1" id="Layer_1" xmlns="http://www.w3.org/2000/svg" xmlns:xlink="http://www.w3.org/1999/xlink" x="0px" y="0px"
	 viewBox="0 0 72 72" style="enable-background:new 0 0 72 72;" xml:space="preserve">
<style type="text/css">
	.st0{fill:#FFFFFF;}
	.st1{fill:#F2DB68;}
</style>
<path class="st0" d="M16.4,37.7c0.2,0,0.3,0.1,0.3,0.3c0,0.2-0.1,0.3-0.3,0.3h-3.6c-0.5,0-1-0.1-1.5-0.3c-0.5-0.2-0.9-0.5-1.2-0.8
	c-0.3-0.3-0.6-0.8-0.8-1.2C9.1,35.5,9,35,9,34.5v-1.7c0-0.5,0.1-1,0.3-1.5c0.2-0.5,0.5-0.9,0.8-1.2c0.3-0.3,0.8-0.6,1.2-0.8
	c0.5-0.2,1-0.3,1.5-0.3h3.6c0.2,0,0.3,0.1,0.3,0.3c0,0.2-0.1,0.3-0.3,0.3h-3.6c-0.4,0-0.8,0.1-1.2,0.3c-0.4,0.2-0.7,0.4-1,0.7
	c-0.3,0.3-0.5,0.6-0.7,1c-0.2,0.4-0.3,0.8-0.3,1.3v1.7c0,0.4,0.1,0.9,0.3,1.3c0.2,0.4,0.4,0.7,0.7,1c0.3,0.3,0.6,0.5,1,0.7
	c0.4,0.2,0.8,0.3,1.3,0.3h3.3H16.4z"/>
<path class="st0" d="M23.7,28.9c0.5,0,1,0.1,1.5,0.3c0.5,0.2,0.9,0.5,1.2,0.8c0.4,0.3,0.6,0.8,0.8,1.2c0.2,0.5,0.3,1,0.3,1.5v1.7
	c0,0.5-0.1,1-0.3,1.5c-0.2,0.5-0.5,0.9-0.8,1.2c-0.4,0.3-0.8,0.6-1.2,0.8c-0.5,0.2-1,0.3-1.5,0.3h-2.5c-0.4,0-0.8-0.1-1.2-0.2
	c-0.4-0.2-0.7-0.4-1-0.6c-0.3-0.3-0.5-0.6-0.6-1c-0.2-0.4-0.2-0.7-0.2-1.2c0-0.4,0.1-0.8,0.2-1.2c0.2-0.4,0.4-0.7,0.6-0.9
	c0.3-0.3,0.6-0.5,1-0.6c0.4-0.2,0.8-0.2,1.2-0.2H27L26.9,32c-0.1-0.4-0.2-0.7-0.4-1c-0.2-0.3-0.4-0.6-0.7-0.8
	c-0.3-0.2-0.6-0.4-0.9-0.5c-0.3-0.1-0.7-0.2-1.1-0.2h-3.9c-0.2,0-0.3-0.1-0.3-0.3c0-0.2,0.1-0.3,0.3-0.3h0.3H23.7z M23.7,37.7
	c0.4,0,0.9-0.1,1.3-0.3c0.4-0.2,0.7-0.4,1-0.7c0.3-0.3,0.5-0.6,0.7-1c0.2-0.4,0.3-0.8,0.3-1.2v-1.5h-5.7c-0.3,0-0.7,0.1-0.9,0.2
	c-0.3,0.1-0.5,0.3-0.8,0.5c-0.2,0.2-0.4,0.5-0.5,0.8c-0.1,0.3-0.2,0.6-0.2,0.9c0,0.3,0.1,0.7,0.2,0.9c0.1,0.3,0.3,0.5,0.5,0.8
	c0.2,0.2,0.5,0.4,0.8,0.5c0.3,0.1,0.6,0.2,0.9,0.2h1.3H23.7z"/>
<path class="st0" d="M29.6,32.7c0-0.5,0.1-1,0.3-1.4c0.2-0.5,0.5-0.9,0.8-1.2c0.3-0.3,0.7-0.6,1.2-0.8c0.5-0.2,0.9-0.3,1.5-0.3H35
	c0.5,0,1,0.1,1.4,0.3c0.5,0.2,0.9,0.5,1.2,0.8c0.3,0.3,0.6,0.7,0.8,1.2c0.2,0.5,0.3,0.9,0.3,1.4v1.8c0,0.5-0.1,1-0.3,1.5
	c-0.2,0.5-0.5,0.8-0.8,1.2c-0.3,0.3-0.7,0.6-1.2,0.8c-0.5,0.2-0.9,0.3-1.4,0.3h-1.7c-1,0-1.9-0.4-2.7-1.1l-0.5-0.5v5.8
	c0,0.2-0.1,0.3-0.3,0.3c-0.2,0-0.3-0.1-0.3-0.3V32.7z M30.2,34.6c0,0.4,0.1,0.8,0.3,1.2c0.2,0.4,0.4,0.7,0.7,1
	c0.3,0.3,0.6,0.5,1,0.7c0.4,0.2,0.8,0.2,1.2,0.2H35c0.4,0,0.8-0.1,1.2-0.3c0.4-0.2,0.7-0.4,1-0.7c0.3-0.3,0.5-0.6,0.7-1
	c0.2-0.4,0.3-0.8,0.3-1.2v-1.8c0-0.4-0.1-0.8-0.3-1.2c-0.2-0.4-0.4-0.7-0.7-1c-0.3-0.3-0.6-0.5-1-0.7c-0.4-0.2-0.8-0.3-1.2-0.3h-1.7
	c-0.4,0-0.8,0.1-1.2,0.3c-0.4,0.2-0.7,0.4-1,0.7c-0.3,0.3-0.5,0.6-0.7,1c-0.2,0.4-0.3,0.8-0.3,1.2V34V34.6z"/>
<path class="st0" d="M49.5,31.2c0,0.2-0.1,0.3-0.3,0.3c-0.2,0-0.3-0.1-0.3-0.3V31c0-0.1,0-0.3-0.1-0.5c-0.1-0.2-0.2-0.3-0.3-0.4
	L48.4,30c-0.3-0.3-0.7-0.5-1.2-0.5h-3.6c-0.5,0-0.9,0.2-1.2,0.5c-0.3,0.3-0.5,0.7-0.5,1.2c0,0.6,0.2,1,0.6,1.3
	c0.4,0.3,0.9,0.5,1.4,0.6c0.6,0.1,1.2,0.2,1.9,0.3c0.7,0.1,1.3,0.2,1.9,0.4c0.6,0.2,1.1,0.4,1.4,0.8c0.4,0.3,0.6,0.8,0.6,1.5
	c0,0.3-0.1,0.6-0.2,0.9c-0.1,0.3-0.3,0.5-0.5,0.7c-0.2,0.2-0.4,0.4-0.7,0.5c-0.3,0.1-0.6,0.2-0.9,0.2h-3.9c-0.3,0-0.6-0.1-0.8-0.2
	c-0.3-0.1-0.5-0.3-0.7-0.4c-0.2-0.2-0.4-0.4-0.5-0.6c-0.1-0.3-0.2-0.5-0.2-0.8c0-0.1,0-0.2,0-0.4s0.1-0.2,0.3-0.2
	c0.2,0,0.3,0.1,0.3,0.3v0.2c0,0.2,0,0.4,0.1,0.6c0.1,0.2,0.2,0.3,0.4,0.5c0.2,0.1,0.3,0.2,0.5,0.3c0.2,0.1,0.4,0.1,0.6,0.1h4
	c0.5,0,0.9-0.2,1.2-0.5c0.3-0.3,0.5-0.7,0.5-1.2c0-0.3-0.1-0.6-0.2-0.8s-0.3-0.4-0.5-0.5c-0.2-0.1-0.4-0.3-0.7-0.3
	c-0.3-0.1-0.5-0.1-0.7-0.2c-0.5-0.1-1.1-0.2-1.7-0.2c-0.7-0.1-1.3-0.2-1.9-0.4c-0.6-0.2-1.1-0.4-1.5-0.8c-0.4-0.4-0.6-0.9-0.6-1.6
	c0-0.3,0.1-0.6,0.2-0.9c0.1-0.3,0.3-0.5,0.5-0.7c0.2-0.2,0.4-0.4,0.7-0.5c0.3-0.1,0.6-0.2,0.9-0.2h3.6c0.6,0,1.2,0.2,1.6,0.6
	l0.1,0.1c0.2,0.2,0.3,0.4,0.4,0.6c0.1,0.2,0.2,0.5,0.2,0.7c0,0,0,0.1,0,0.1C49.5,31.1,49.5,31.2,49.5,31.2z"/>
<path class="st1" d="M52,38.3v-2.1c0-0.5,0.1-1,0.3-1.5c0.2-0.5,0.5-0.9,0.8-1.2c0.3-0.3,0.8-0.6,1.2-0.8c0.5-0.2,1-0.3,1.5-0.3h1.7
	c0.5,0,1,0.1,1.5,0.3c0.5,0.2,0.9,0.5,1.2,0.8c0.3,0.3,0.6,0.8,0.8,1.2c0.2,0.5,0.3,1,0.3,1.5v2.1H52z"/>
<path class="st0" d="M63.7,26.2c0-0.2,0.1-0.3,0.3-0.3c0.2,0,0.3,0.1,0.3,0.3V38c0,0.2-0.1,0.3-0.3,0.3c-0.2,0-0.3-0.1-0.3-0.3V26.2
	z"/>
</svg>
